<?xml version="1.0" encoding="UTF-8"?>
<svg width="50px" height="22px" viewBox="0 0 50 22" version="1.1" xmlns="http://www.w3.org/2000/svg" xmlns:xlink="http://www.w3.org/1999/xlink">
    <!-- Generator: Sketch 45.2 (43514) - http://www.bohemiancoding.com/sketch -->
    <title>Group</title>
    <desc>Created with Sketch.</desc>
    <defs></defs>
    <g id="Welcome" stroke="none" stroke-width="1" fill="none" fill-rule="evenodd">
        <g id="Proposal-Builder" transform="translate(-35.000000, -29.000000)">
            <g id="Group" transform="translate(35.000000, 29.000000)">
                <path d="M17.5223828,13.394375 C17.5223828,14.6260478 17.3155034,15.7470457 16.9017383,16.7574023 C16.4879732,17.767759 15.8962018,18.6337659 15.1264063,19.3554492 C14.3566107,20.0771325 13.4280588,20.640037 12.3407227,21.0441797 C11.2533865,21.4483223 10.0457879,21.6503906 8.71789062,21.6503906 C7.37074847,21.6503906 6.15833872,21.4483223 5.080625,21.0441797 C4.00291128,20.640037 3.08879282,20.0771325 2.33824219,19.3554492 C1.58769156,18.6337659 1.01035358,17.767759 0.606210938,16.7574023 C0.202068292,15.7470457 0,14.6260478 0,13.394375 L0,0.663945312 L4.90742187,0.663945312 L4.90742187,12.9902344 C4.90742187,13.5483361 4.97958912,14.0775626 5.12392578,14.5779297 C5.26826244,15.0782968 5.48957533,15.5257337 5.78787109,15.9202539 C6.08616686,16.3147741 6.48068114,16.6274988 6.97142578,16.8584375 C7.46217042,17.0893762 8.05394185,17.2048437 8.74675781,17.2048437 C9.43957378,17.2048437 10.0313452,17.0893762 10.5220898,16.8584375 C11.0128345,16.6274988 11.4121599,16.3147741 11.7200781,15.9202539 C12.0279963,15.5257337 12.2493092,15.0782968 12.3840234,14.5779297 C12.5187377,14.0775626 12.5860938,13.5483361 12.5860938,12.9902344 L12.5860938,0.663945312 L17.5223828,0.663945312 L17.5223828,13.394375 Z M49.5866113,19.860625 C48.5858772,20.380237 47.4167678,20.8036182 46.079248,21.1307812 C44.7417283,21.4579443 43.2839499,21.6215234 41.7058691,21.6215234 C40.0700537,21.6215234 38.5641638,21.3617213 37.1881543,20.8421094 C35.8121448,20.3224974 34.628602,19.5912026 33.6374902,18.6482031 C32.6463785,17.7052036 31.8717834,16.5745834 31.3136816,15.2563086 C30.7555799,13.9380338 30.4765332,12.4706331 30.4765332,10.8540625 C30.4765332,9.21824703 30.760391,7.73641289 31.3281152,6.40851562 C31.8958394,5.08061836 32.6800568,3.94999816 33.680791,3.01662109 C34.6815252,2.08324403 35.8554457,1.36638271 37.2025879,0.866015625 C38.54973,0.36564854 40.0026973,0.11546875 41.5615332,0.11546875 C43.1781038,0.11546875 44.6791825,0.36083739 46.0648145,0.851582031 C47.4504464,1.34232667 48.5762554,2.0014542 49.4422754,2.82898437 L46.3246191,6.37964844 C45.8434969,5.82154669 45.2084252,5.36448746 44.4193848,5.00845703 C43.6303444,4.65242661 42.7354705,4.47441406 41.7347363,4.47441406 C40.8687164,4.47441406 40.0700655,4.63318201 39.3387598,4.95072266 C38.607454,5.26826331 37.9723823,5.71088909 37.4335254,6.27861328 C36.8946685,6.84633747 36.4760985,7.51989845 36.1778027,8.29931641 C35.879507,9.07873437 35.7303613,9.93030788 35.7303613,10.8540625 C35.7303613,11.797062 35.8650735,12.663069 36.134502,13.4521094 C36.4039304,14.2411498 36.8032558,14.9195219 37.3324902,15.4872461 C37.8617247,16.0549703 38.516041,16.4975961 39.295459,16.8151367 C40.0748769,17.1326774 40.9649397,17.2914453 41.9656738,17.2914453 C42.5430205,17.2914453 43.0914915,17.248145 43.6111035,17.161543 C44.1307155,17.074941 44.6118305,16.9354176 45.0544629,16.7429687 L45.0544629,13.0191016 L41.1573926,13.0191016 L41.1573926,9.03542969 L49.5866113,9.03542969 L49.5866113,19.860625 Z" id="U-G" fill="#000000"></path>
                <path d="M26.6119385,17.5909424 L26.6119385,4.05944824 C26.6119385,2.56480067 25.4002872,1.35314941 23.9056396,1.35314941 C22.4109921,1.35314941 21.1993408,2.56480067 21.1993408,4.05944824 L21.1993408,17.5909424 C21.1993408,19.08559 22.4109921,20.2972412 23.9056396,20.2972412 C25.4002872,20.2972412 26.6119385,19.08559 26.6119385,17.5909424 Z" id="Line" fill="#1875F0" fill-rule="nonzero"></path>
            </g>
        </g>
    </g>
</svg>